<svg width="67" height="101" viewBox="0 0 67 101" fill="none" xmlns="http://www.w3.org/2000/svg">
<g clip-path="url(#clip0_38_210)">
<path d="M17 101C26.1104 101 33.5 93.3865 33.5 84V67H17C7.88957 67 0.5 74.6135 0.5 84C0.5 93.3865 7.88957 101 17 101Z" fill="#0ACF83"/>
<path d="M0.5 50.9896C0.5 41.6088 7.88957 34 17 34H33.5V68H17C7.88957 67.9792 0.5 60.3703 0.5 50.9896Z" fill="#A259FF"/>
<path d="M0.5 16.9896C0.5 7.60883 7.88957 0 17 0H33.5V34H17C7.88957 34 0.5 26.3703 0.5 16.9896Z" fill="#F24E1E"/>
<path d="M33.5 0H50C59.1104 0 66.5 7.6135 66.5 17C66.5 26.3865 59.1104 34 50 34H33.5V0Z" fill="#FF7262"/>
<path d="M66.5 51C66.5 60.3865 59.1104 68 50 68C40.8896 68 33.5 60.3865 33.5 51C33.5 41.6135 40.8896 34 50 34C59.1104 34 66.5 41.6135 66.5 51Z" fill="#1ABCFE"/>
</g>
<defs>
<clipPath id="clip0_38_210">
<rect width="66" height="101" fill="white" transform="translate(0.5)"/>
</clipPath>
</defs>
</svg>
