<svg width="107" height="105" viewBox="0 0 107 105" fill="none" xmlns="http://www.w3.org/2000/svg">
<path d="M18.9479 0H88.0521C98.5292 0 107 8.52564 107 19.0705V85.9295C107 96.4744 98.5292 105 88.0521 105H18.9479C8.47083 105 0 96.4744 0 85.9295V19.0705C0 8.52564 8.47083 0 18.9479 0Z" fill="#330000"/>
<path d="M52.0233 62.5868H35.2811L31.8606 73.1463C31.7706 73.5507 31.4106 73.8203 31.0055 73.7753H22.5444C22.0493 73.7753 21.9143 73.5057 22.0493 72.9665L36.5413 31.3128C36.6763 30.8634 36.8113 30.3692 36.9913 29.83C37.1713 28.8863 37.2614 27.8978 37.2614 26.9093C37.2163 26.6846 37.3964 26.4599 37.6214 26.415H49.278C49.638 26.415 49.818 26.5498 49.8631 26.7744L66.2903 73.0564C66.4253 73.5507 66.2903 73.7753 65.8402 73.7753H56.4339C56.1189 73.8203 55.8039 73.5956 55.7138 73.2811L52.0233 62.5868ZM37.8914 53.4652H49.323C49.0529 52.5216 48.6929 51.3982 48.2878 50.23C47.8828 49.0167 47.4777 47.7137 47.0727 46.3656C46.6226 44.9727 46.2176 43.6247 45.7675 42.2317C45.3174 40.8388 44.9124 39.5357 44.5523 38.2326C44.1923 36.9745 43.8772 35.8062 43.5622 34.7278H43.4722C43.0671 36.6599 42.5721 38.5921 41.942 40.5242C41.2669 42.6811 40.5918 44.9278 39.8717 47.1744C39.2416 49.4661 38.5665 51.578 37.8914 53.4652ZM76.3266 34.2784C74.8414 34.3233 73.4012 33.7392 72.3211 32.7057C71.2859 31.5824 70.7459 30.0996 70.7909 28.5718C70.7459 27.0441 71.331 25.6062 72.4111 24.5727C73.4912 23.5392 74.9314 23 76.4166 23C78.1719 23 79.5221 23.5392 80.5122 24.5727C81.5023 25.6511 82.0424 27.089 81.9974 28.5718C82.0424 30.0996 81.5023 31.5824 80.4222 32.7057C79.387 33.7841 77.8568 34.3683 76.3266 34.2784ZM71.2859 73.2811V38.6819C71.2859 38.2326 71.466 38.0529 71.871 38.0529H80.7822C81.1873 38.0529 81.3673 38.2775 81.3673 38.6819V73.2811C81.3673 73.7753 81.1873 74 80.7822 74H71.961C71.511 74 71.2859 73.7304 71.2859 73.2811Z" fill="#FF9A00"/>
</svg>
