<svg width="108" height="105" viewBox="0 0 108 105" fill="none" xmlns="http://www.w3.org/2000/svg">
<path d="M19.125 0H88.875C99.45 0 108 8.52564 108 19.0705V85.9295C108 96.4744 99.45 105 88.875 105H19.125C8.55 105 0 96.4744 0 85.9295V19.0705C0 8.52564 8.55 0 19.125 0Z" fill="#001E36"/>
<path d="M24 73.423V27.7545C24 27.4438 24.1349 27.2663 24.4497 27.2663C25.2143 27.2663 25.9339 27.2663 26.9683 27.2219C28.0476 27.1775 29.172 27.1775 30.3862 27.1331C31.6005 27.0888 32.9048 27.0888 34.2989 27.0444C35.6931 27 37.0423 27 38.3915 27C42.0794 27 45.1376 27.4438 47.6561 28.3758C49.9048 29.1303 51.9735 30.373 53.6825 32.0151C55.1217 33.4353 56.246 35.1662 56.9656 37.0746C57.6402 38.9386 58 40.847 58 42.8442C58 46.661 57.1005 49.8121 55.3016 52.2975C53.5026 54.7828 50.9841 56.6468 48.0608 57.712C45.0026 58.8215 41.6296 59.221 37.9418 59.221C36.8624 59.221 36.1429 59.221 35.6931 59.1766C35.2434 59.1322 34.6138 59.1322 33.7593 59.1322V73.3787C33.8042 73.6893 33.5794 73.9556 33.2645 74C33.2196 74 33.1746 74 33.0847 74H24.5397C24.1799 74 24 73.8225 24 73.423ZM33.8042 35.8319V50.7441C34.4339 50.7885 35.0185 50.8329 35.5582 50.8329H37.9418C39.6958 50.8329 41.4497 50.5666 43.1138 50.034C44.5529 49.6346 45.8122 48.7913 46.8016 47.6818C47.746 46.5722 48.1958 45.0633 48.1958 43.1105C48.2407 41.7347 47.8809 40.3588 47.1614 39.1605C46.3968 38.0066 45.3175 37.119 44.0132 36.6308C42.3492 35.9651 40.5503 35.6988 38.7063 35.7432C37.537 35.7432 36.5026 35.7432 35.6481 35.7875C34.7487 35.7432 34.119 35.7875 33.8042 35.8319Z" fill="#31A8FF"/>
<path d="M86.1333 48.0505C84.7913 47.3389 83.3598 46.8498 81.8388 46.5385C80.1836 46.1827 78.5285 45.9603 76.8286 45.9603C75.9339 45.9159 74.9945 46.0493 74.1445 46.2716C73.563 46.405 73.0709 46.7163 72.7578 47.1611C72.5341 47.5168 72.3999 47.9615 72.3999 48.3618C72.3999 48.762 72.5788 49.1623 72.8472 49.518C73.2498 50.0072 73.7866 50.4075 74.3682 50.7188C75.3971 51.2524 76.4707 51.7416 77.5443 52.1863C79.96 52.9868 82.2861 54.0986 84.4334 55.4327C85.9096 56.3666 87.1174 57.6118 87.9674 59.1238C88.6831 60.5469 89.041 62.1034 88.9963 63.7043C89.041 65.7945 88.4147 67.8846 87.2516 69.619C85.9991 71.3978 84.2544 72.7764 82.2414 73.5769C80.0494 74.5108 77.3654 75 74.1445 75C72.0867 75 70.0737 74.8221 68.0607 74.4219C66.495 74.155 64.9293 73.6659 63.4978 72.9988C63.1846 72.8209 62.961 72.5096 63.0057 72.1539V64.4159C63.0057 64.2825 63.0504 64.1046 63.1846 64.0156C63.3188 63.9267 63.453 63.9712 63.5872 64.0601C65.3319 65.0829 67.166 65.7945 69.1343 66.2392C70.8342 66.6839 72.6236 66.9063 74.4129 66.9063C76.1128 66.9063 77.3206 66.6839 78.1259 66.2837C78.8416 65.9724 79.3337 65.2163 79.3337 64.4159C79.3337 63.7933 78.9758 63.2151 78.2601 62.637C77.5443 62.0589 76.0681 61.3918 73.8761 60.5469C71.5947 59.7464 69.4922 58.6791 67.5238 57.345C66.1371 56.3666 64.974 55.0769 64.1241 53.5649C63.4083 52.1418 63.0504 50.5853 63.0952 49.0288C63.0952 47.1166 63.632 45.2933 64.6161 43.6478C65.7345 41.869 67.3896 40.4459 69.3132 39.5565C71.4157 38.4892 74.055 38 77.2312 38C79.0653 38 80.9441 38.1334 82.7782 38.4002C84.1202 38.5781 85.4175 38.9339 86.6254 39.4231C86.8043 39.4675 86.9832 39.6454 87.0727 39.8233C87.1174 40.0012 87.1622 40.1791 87.1622 40.357V47.6058C87.1622 47.7837 87.0727 47.9615 86.9385 48.0505C86.5359 48.1394 86.3122 48.1394 86.1333 48.0505Z" fill="#31A8FF"/>
</svg>
