<svg width="91" height="74" viewBox="0 0 91 74" fill="none" xmlns="http://www.w3.org/2000/svg">
<path d="M67.544 49.966L67.5442 49.9659C69.8611 47.8441 71.1611 44.9969 70.9839 41.9519C70.8065 38.9932 69.2588 36.3621 66.8936 34.4817C64.5702 32.6354 61.4348 31.5021 58.0002 31.5C54.5655 31.5021 51.428 32.6355 49.1047 34.4817L67.544 49.966ZM67.544 49.966C65.1836 52.1295 61.8022 53.5 58.0023 53.5C54.2003 53.5 50.8165 52.1295 48.4518 49.9678C46.1351 47.8439 44.8374 44.9971 45.0164 41.9547M67.544 49.966L45.0164 41.9547M45.0164 41.9547C45.1936 38.9913 46.7395 36.3622 49.1046 34.4818L45.0164 41.9547Z" fill="#01579B" stroke="black"/>
<path d="M79.2309 23.2396C81.947 25.3681 84.227 27.8888 86.0047 30.7619C87.9532 33.911 89.2215 37.3645 89.7414 41.0417C90.0064 42.9284 90.0685 44.8202 89.9241 46.7034L89.9226 46.7225V46.7416C89.9226 55.079 86.4321 61.7535 80.8574 66.3529C75.274 70.9595 67.5784 73.5 59.168 73.5C47.3647 73.5 39.5026 68.9371 34.5865 63.511C29.65 58.0625 27.6852 51.7471 27.6852 48.273H27.6852L27.6851 48.264C27.6772 47.8201 27.7114 46.3327 27.7566 44.6667L27.7872 43.5363L26.9304 44.2743L8.61566 60.0503L79.2309 23.2396ZM79.2309 23.2396L79.1545 23.2147L79.0759 23.1442C79.0277 23.101 78.9856 23.0549 78.9654 23.0334C78.9642 23.0321 78.963 23.0309 78.9619 23.0297M79.2309 23.2396L78.9619 23.0297M78.9619 23.0297L78.738 22.8551M78.9619 23.0297L78.738 22.8551M78.738 22.8551L49.8018 1.3022L49.7942 1.29657L49.7869 1.29067C48.2438 0.0483264 45.9829 0.29482 44.7421 1.85572L44.7418 1.85611C43.5033 3.41091 43.7513 5.68068 45.2971 6.92727L57.5378 16.0441L58.7475 16.9451H57.2391H17.8865C15.3525 16.9451 13.2729 19.0314 13.2729 21.584C13.2729 24.1365 15.3525 26.2228 17.8865 26.2228H32.5197H33.8718L32.845 27.1025L2.61204 53.0055C2.61185 53.0056 2.61165 53.0058 2.61145 53.006C0.677016 54.6723 0.451828 57.605 2.1116 59.5475L2.11175 59.5477C3.02568 60.6183 4.31651 61.1668 5.6158 61.1668C6.67809 61.1668 7.74359 60.8003 8.61539 60.0505L78.738 22.8551ZM77.7254 47.7648L77.7254 47.7649C76.8795 50.069 75.5121 52.2202 73.6532 54.0946L77.7254 47.7648ZM77.7254 47.7648C78.5546 45.5046 78.8752 43.1103 78.6643 40.6899L78.6643 40.6893C78.4555 38.3261 77.7489 36.0754 76.6129 34.0399C75.4999 32.0403 73.97 30.2423 72.0881 28.7242L72.0873 28.7236C68.3919 25.7544 63.7021 24.1589 58.7951 24.1652C53.8881 24.1715 49.1963 25.7796 45.5032 28.7613L45.5023 28.762M77.7254 47.7648L45.5023 28.762M39.8643 47.8231L39.8639 47.8221C39.037 45.5645 38.7141 43.1683 38.9271 40.7514C39.1338 38.3862 39.8383 36.1333 40.9744 34.0954L39.8643 47.8231ZM39.8643 47.8231C40.7122 50.1231 42.0818 52.2723 43.941 54.1406C47.745 57.9715 53.0607 60.1197 58.8007 60.1092M39.8643 47.8231L58.8007 60.1092M45.5023 28.762C43.621 30.288 42.0894 32.0918 40.9746 34.095L45.5023 28.762ZM58.8007 60.1092C64.5407 60.1008 69.8517 57.9357 73.653 54.0948L58.8007 60.1092Z" fill="#FF6D00" stroke="black"/>
</svg>
