<svg width="26" height="27" viewBox="0 0 26 27" fill="none" xmlns="http://www.w3.org/2000/svg">
<path d="M14.2632 3.25352L16.446 7.93056C16.8825 8.86579 17.6342 9.61754 18.5694 10.054L23.2465 12.2368C24.3191 12.7374 24.3191 14.2626 23.2465 14.7632L18.5694 16.946C17.6342 17.3825 16.8825 18.1342 16.446 19.0694L14.2632 23.7465C13.7626 24.8191 12.2374 24.8191 11.7368 23.7465L9.55401 19.0694C9.11754 18.1342 8.36579 17.3825 7.43056 16.946L2.75352 14.7632C1.6809 14.2626 1.6809 12.7374 2.75352 12.2368L7.43056 10.054C8.36579 9.61754 9.11754 8.86579 9.55401 7.93056L11.7368 3.25352C12.2374 2.1809 13.7626 2.1809 14.2632 3.25352Z" stroke="#FED74A" stroke-width="3"/>
</svg>
