<svg width="26" height="27" viewBox="0 0 26 27" fill="none" xmlns="http://www.w3.org/2000/svg">
<path d="M10.3775 2.61915C11.4168 0.392354 14.5832 0.392354 15.6225 2.61915L17.8052 7.29619C18.0927 7.91216 18.5878 8.40728 19.2038 8.69475L23.8808 10.8775C26.1076 11.9168 26.1076 15.0832 23.8808 16.1225L19.2038 18.3052C18.5878 18.5927 18.0927 19.0878 17.8052 19.7038L15.6225 24.3808C14.5832 26.6076 11.4168 26.6076 10.3775 24.3808L8.19475 19.7038C7.90728 19.0878 7.41216 18.5927 6.79619 18.3052L2.11915 16.1225C-0.107646 15.0832 -0.107646 11.9168 2.11915 10.8775L6.79619 8.69475C7.41216 8.40728 7.90728 7.91216 8.19475 7.29619L10.3775 2.61915Z" fill="#FED74A"/>
</svg>
