<svg width="128" height="151" viewBox="0 0 128 151" fill="none" xmlns="http://www.w3.org/2000/svg">
<path d="M124.95 3.95804L124.681 4.3477L124.391 4.71954L124.08 5.07349L123.748 5.40957L123.395 5.72795L123.021 6.02887L122.626 6.31269L122.213 6.57989L121.78 6.83103L121.328 7.06678L120.86 7.28792L120.375 7.49528L119.875 7.68982L119.361 7.87256L118.834 8.04457L118.296 8.20703L117.748 8.36114L117.192 8.50818L116.629 8.64945L116.06 8.78631L115.489 8.92013L114.915 9.0523L114.34 9.18422L113.768 9.3173L113.198 9.45294L112.633 9.59252L112.074 9.73739L111.523 9.88889L110.981 10.0483L110.45 10.2168L109.932 10.3957L109.427 10.586L108.936 10.7888L108.462 11.005L108.005 11.2355L107.565 11.4812L107.144 11.7427L106.743 12.0207L106.362 12.3156L106.002 12.6278L105.662 12.9577L105.343 13.3054L105.046 13.671L104.77 14.0545L104.515 14.4556L104.28 14.8743L104.066 15.31L103.871 15.7623L103.696 16.2307L103.538 16.7145L103.398 17.2129L103.275 17.7251L103.166 18.2501L103.072 18.7869L102.99 19.3344L102.919 19.8915L102.859 20.4569L102.807 21.0294L102.761 21.6077L102.721 22.1904L102.684 22.7761L102.65 23.3635L102.616 23.9511L102.58 24.5375L102.541 25.1215L102.498 25.7014L102.448 26.2761L102.391 26.8441L102.324 27.4043L102.246 27.9553L102.156 28.4959L102.053 29.0252L101.934 29.542L101.8 30.0453L101.649 30.5343L101.48 31.0081L101.292 31.4661L101.085 31.9077L100.857 32.3324L100.609 32.7397L100.341 33.1293L100.051 33.5012L99.7395 33.8551L99.4072 34.1912L99.0539 34.5096L98.6799 34.8105L98.2857 35.0943L97.8717 35.3615L97.4388 35.6126L96.9876 35.8484L96.5191 36.0695L96.0342 36.2769L95.5342 36.4714L95.0202 36.6542L94.4935 36.8262L93.9554 36.9886L93.4075 37.1428L92.8512 37.2898L92.2881 37.4311L91.7197 37.5679L91.1477 37.7017L90.5738 37.8339L89.9996 37.9658L89.4267 38.0989L88.8569 38.2346L88.2918 38.3741L87.7329 38.519L87.1819 38.6705L86.6402 38.8299L86.1094 38.9984L85.5908 39.1773L85.0858 39.3676L84.5955 39.5704L84.1211 39.7866L83.6638 40.0172L83.2244 40.2628L82.8037 40.5244L82.4025 40.8023L82.0214 41.0972L81.6608 41.4095L81.3211 41.7393L81.0026 42.087L80.7052 42.4526L80.429 42.8361L80.1738 43.2373L79.9393 43.6559L79.725 44.0916L79.5304 44.5439L79.3549 45.0123L79.1975 45.4961L79.0575 45.9945L78.9338 46.5067L78.8253 47.0317L78.7308 47.5685L78.649 48.116L78.5786 48.6731L78.518 49.2385L78.4657 49.811L78.4204 50.3893L78.3802 50.972L78.3437 51.5577L78.3091 52.1451L78.2748 52.7327L78.2391 53.3192L78.2004 53.9031L78.157 54.483L78.1074 55.0577L78.0499 55.6257L77.983 56.1859L77.9053 56.7369L77.8154 57.2776L77.7119 57.8068L77.5937 58.3236L77.4595 58.8269L77.3083 59.3159L77.1392 59.7897L76.9514 60.2477L76.744 60.6893L76.5166 61.114L76.2687 61.5213L75.9999 61.9109L75.7099 62.2828L75.3987 62.6367L75.0664 62.9728L74.7131 63.2912L74.3391 63.5921L73.9449 63.8759L73.5309 64.1431L73.098 64.3943L72.6468 64.63L72.1783 64.8511L71.6934 65.0585L71.1934 65.2531L70.6794 65.4358L70.1527 65.6078L69.6146 65.7703L69.0667 65.9244L68.5104 66.0714L67.9473 66.2127L67.3789 66.3495L66.8069 66.4834L66.233 66.6155L65.6588 66.7474L65.086 66.8805L64.5161 67.0162L63.951 67.1557L63.3921 67.3006L62.8411 67.4521L62.2994 67.6115L61.7686 67.7801L61.25 67.9589L60.745 68.1492L60.2547 68.352L59.7804 68.5682L59.323 68.7988L58.8836 69.0445L58.4629 69.306L58.0617 69.5839L57.6806 69.8788L57.32 70.1911L56.9803 70.521L56.6618 70.8686L56.3644 71.2342L56.0882 71.6177L55.833 72.0189L55.5985 72.4375L55.3842 72.8732L55.1896 73.3255L55.0141 73.7939L54.8567 74.2777L54.7167 74.7761L54.593 75.2883L54.4846 75.8133L54.3901 76.3501L54.3082 76.8976L54.2378 77.4547L54.1772 78.0202L54.125 78.5927L54.0796 79.1709L54.0394 79.7536L54.0029 80.3393L53.9683 80.9267L53.934 81.5143L53.8983 82.1008L53.8596 82.6847L53.8162 83.2646L53.7666 83.8393L53.7091 84.4073L53.6422 84.9675L53.5645 85.5185L53.4746 86.0592L53.3711 86.5884L53.2529 87.1052L53.1187 87.6085L52.9675 88.0975L52.7984 88.5713L52.6106 89.0294L52.4033 89.4709L52.1759 89.8956L51.9279 90.3029L51.6591 90.6925L51.3691 91.0644L51.0579 91.4183L50.7256 91.7544L50.3723 92.0728L49.9983 92.3737L49.6041 92.6575L49.1901 92.9247L48.7572 93.1759L48.306 93.4116L47.8375 93.6328L47.3526 93.8401L46.8526 94.0347L46.3386 94.2174L45.8119 94.3894L45.2738 94.5519L44.7259 94.706L44.1696 94.853L43.6065 94.9943L43.0381 95.1311L42.4661 95.265L41.8922 95.3971L41.318 95.5291L40.7452 95.6621L40.1754 95.7978L39.6102 95.9374L39.0513 96.0822L38.5003 96.2337L37.9587 96.3931L37.4278 96.5617L36.9092 96.7405L36.4042 96.9308L35.9139 97.1336L35.4396 97.3498L34.9822 97.5804L34.5428 97.8261L34.1221 98.0876L33.7209 98.3655L33.3398 98.6604L32.9792 98.9727L32.6396 99.3026L32.321 99.6503L32.0236 100.016L31.7474 100.399L31.4922 100.8L31.2577 101.219L31.0434 101.655L30.8488 102.107L30.6733 102.576L30.5159 103.059L30.3759 103.558L30.2523 104.07L30.1438 104.595L30.0493 105.132L29.9674 105.679L29.897 106.236L29.8364 106.802L29.7842 107.374L29.7388 107.953L29.6986 108.535L29.6621 109.121L29.6275 109.708L29.5932 110.296L29.5575 110.882L29.5188 111.466L29.4754 112.046L29.4258 112.621L29.3683 113.189L29.3014 113.749L29.2237 114.3L29.1338 114.841L29.0303 115.37L28.9121 115.887L28.7779 116.39L28.6267 116.879L28.4576 117.353L28.2698 117.811L28.0625 118.253L27.8351 118.677L27.5871 119.084L27.3183 119.474L27.0283 119.846L26.7171 120.2L26.3848 120.536L26.0315 120.854L25.6575 121.155L25.2633 121.439L24.8494 121.706L24.4164 121.957L23.9652 122.193L23.4967 122.414L23.0118 122.622L22.5118 122.816L21.9978 122.999L21.4711 123.171L20.9331 123.333L20.3851 123.488L19.8288 123.635L19.2657 123.776L18.6973 123.913L18.1253 124.047L17.5514 124.179L16.9772 124.311L16.4044 124.444L15.8346 124.579L15.2694 124.719L14.7105 124.864L14.1595 125.015L13.6179 125.175L13.087 125.343L12.5684 125.522L12.0634 125.712L11.5731 125.915L11.0988 126.131L10.6414 126.362L10.202 126.608L9.78132 126.869L9.38012 127.147L8.99901 127.442L8.63844 127.754L8.29876 128.084L7.9802 128.432L7.68283 128.797L7.40663 129.181L7.15142 129.582L6.91689 130.001L6.70261 130.436L6.50804 130.889L6.33248 131.357L6.17516 131.841L6.03516 132.339L5.91146 132.852L5.80296 133.377L5.70846 133.913L5.62666 134.461L5.55618 135.018L5.49558 135.583L5.44337 136.156L5.39799 136.734L5.35782 137.317L5.32128 137.903L5.28668 138.49L5.25238 139.078L5.2167 139.664L5.17799 140.248L5.13462 140.828L5.08497 141.403L5.02748 141.971L4.96061 142.531L4.88292 143.082L4.793 143.622L4.68954 144.152L4.57129 144.668L4.43711 145.172L4.28594 145.661L4.11685 146.135L3.92899 146.593L3.72166 147.034L3.49426 147.459" stroke="#80ADE4" stroke-width="6" stroke-miterlimit="10" stroke-linecap="round" stroke-linejoin="round"/>
</svg>
