<svg width="195" height="15" viewBox="0 0 195 15" fill="none" xmlns="http://www.w3.org/2000/svg">
<path d="M3.5 3.06506L3.97118 3.01872L4.44236 3L4.91353 3.00903L5.38471 3.04575L5.85589 3.10992L6.32707 3.20117L6.79825 3.31892L7.26942 3.46245L7.7406 3.63087L8.21178 3.82314L8.68296 4.03808L9.15414 4.27437L9.62531 4.53054L10.0965 4.80503L10.5677 5.09612L11.0388 5.40204L11.51 5.72089L11.9812 6.05072L12.4524 6.38947L12.9236 6.73508L13.3947 7.0854L13.8659 7.43827L14.3371 7.79153L14.8083 8.14299L15.2794 8.49048L15.7506 8.83187L16.2218 9.16505L16.693 9.48796L17.1642 9.79861L17.6353 10.0951L18.1065 10.3756L18.5777 10.6383L19.0489 10.8817L19.52 11.1043L19.9912 11.3046L20.4624 11.4815L20.9336 11.6338L21.4048 11.7607L21.8759 11.8613L22.3471 11.9349L22.8183 11.9813L23.2895 12L23.7607 11.991L24.2318 11.9543L24.703 11.8901L25.1742 11.7988L25.6454 11.6811L26.1165 11.5376L26.5877 11.3691L27.0589 11.1769L27.5301 10.9619L28.0013 10.7256L28.4724 10.4695L28.9436 10.195L29.4148 9.90388L29.886 9.59796L30.3571 9.27911L30.8283 8.94928L31.2995 8.61053L31.7707 8.26492L32.2419 7.9146L32.713 7.56173L33.1842 7.20847L33.6554 6.85702L34.1266 6.50952L34.5977 6.16813L35.0689 5.83495L35.5401 5.51204L36.0113 5.20139L36.4825 4.90491L36.9536 4.62442L37.4248 4.36167L37.896 4.11826L38.3672 3.89571L38.8383 3.69537L39.3095 3.5185L39.7807 3.36617L40.2519 3.23932L40.7231 3.13875L41.1942 3.06506L41.6654 3.01872L42.1366 3L42.6078 3.00903L43.0789 3.04575L43.5501 3.10992L44.0213 3.20117L44.4925 3.31892L44.9637 3.46245L45.4348 3.63087L45.906 3.82314L46.3772 4.03808L46.8484 4.27437L47.3195 4.53054L47.7907 4.80503L48.2619 5.09612L48.7331 5.40204L49.2043 5.72089L49.6754 6.05072L50.1466 6.38947L50.6178 6.73508L51.089 7.0854L51.5601 7.43827L52.0313 7.79153L52.5025 8.14299L52.9737 8.49048L53.4449 8.83187L53.916 9.16505L54.3872 9.48796L54.8584 9.79861L55.3296 10.0951L55.8008 10.3756L56.2719 10.6383L56.7431 10.8817L57.2143 11.1043L57.6855 11.3046L58.1566 11.4815L58.6278 11.6338L59.099 11.7607L59.5702 11.8613L60.0414 11.9349L60.5125 11.9813L60.9837 12L61.4549 11.991L61.9261 11.9543L62.3972 11.8901L62.8684 11.7988L63.3396 11.6811L63.8108 11.5376L64.282 11.3691L64.7531 11.1769L65.2243 10.9619L65.6955 10.7256L66.1667 10.4695L66.6378 10.195L67.109 9.90388L67.5802 9.59796L68.0514 9.27911L68.5226 8.94928L68.9937 8.61053L69.4649 8.26492L69.9361 7.9146L70.4073 7.56173L70.8784 7.20847L71.3496 6.85702L71.8208 6.50952L72.292 6.16813L72.7632 5.83495L73.2343 5.51204L73.7055 5.20139L74.1767 4.90491L74.6479 4.62442L75.119 4.36167L75.5902 4.11826L76.0614 3.89571L76.5326 3.69537L77.0038 3.5185L77.4749 3.36617L77.9461 3.23932L78.4173 3.13875L78.8885 3.06506L79.3596 3.01872L79.8308 3L80.302 3.00903L80.7732 3.04575L81.2444 3.10992L81.7155 3.20117L82.1867 3.31892L82.6579 3.46245L83.1291 3.63087L83.6002 3.82314L84.0714 4.03808L84.5426 4.27437L85.0138 4.53054L85.485 4.80503L85.9561 5.09612L86.4273 5.40204L86.8985 5.72089L87.3697 6.05072L87.8409 6.38947L88.312 6.73508L88.7832 7.0854L89.2544 7.43827L89.7256 7.79153L90.1967 8.14299L90.6679 8.49048L91.1391 8.83187L91.6103 9.16505L92.0815 9.48796L92.5526 9.79861L93.0238 10.0951L93.495 10.3756L93.9662 10.6383L94.4373 10.8817L94.9085 11.1043L95.3797 11.3046L95.8509 11.4815L96.3221 11.6338L96.7932 11.7607L97.2644 11.8613L97.7356 11.9349L98.2068 11.9813L98.6779 12L99.1491 11.991L99.6203 11.9543L100.091 11.8901L100.563 11.7988L101.034 11.6811L101.505 11.5376L101.976 11.3691L102.447 11.1769L102.919 10.9619L103.39 10.7256L103.861 10.4695L104.332 10.195L104.803 9.90388L105.274 9.59796L105.746 9.27911L106.217 8.94928L106.688 8.61053L107.159 8.26492L107.63 7.9146L108.102 7.56173L108.573 7.20847L109.044 6.85702L109.515 6.50952L109.986 6.16813L110.457 5.83495L110.929 5.51204L111.4 5.20139L111.871 4.90491L112.342 4.62442L112.813 4.36167L113.284 4.11826L113.756 3.89571L114.227 3.69537L114.698 3.5185L115.169 3.36617L115.64 3.23932L116.112 3.13875L116.583 3.06506L117.054 3.01872L117.525 3L117.996 3.00903L118.467 3.04575L118.939 3.10992L119.41 3.20117L119.881 3.31892L120.352 3.46245L120.823 3.63087L121.294 3.82314L121.766 4.03808L122.237 4.27437L122.708 4.53054L123.179 4.80503L123.65 5.09612L124.122 5.40204L124.593 5.72089L125.064 6.05072L125.535 6.38947L126.006 6.73508L126.477 7.0854L126.949 7.43827L127.42 7.79153L127.891 8.14299L128.362 8.49048L128.833 8.83187L129.305 9.16505L129.776 9.48796L130.247 9.79861L130.718 10.0951L131.189 10.3756L131.66 10.6383L132.132 10.8817L132.603 11.1043L133.074 11.3046L133.545 11.4815L134.016 11.6338L134.487 11.7607L134.959 11.8613L135.43 11.9349L135.901 11.9813L136.372 12L136.843 11.991L137.315 11.9543L137.786 11.8901L138.257 11.7988L138.728 11.6811L139.199 11.5376L139.67 11.3691L140.142 11.1769L140.613 10.9619L141.084 10.7256L141.555 10.4695L142.026 10.195L142.497 9.90388L142.969 9.59796L143.44 9.27911L143.911 8.94928L144.382 8.61053L144.853 8.26492L145.325 7.9146L145.796 7.56173L146.267 7.20847L146.738 6.85702L147.209 6.50952L147.68 6.16813L148.152 5.83495L148.623 5.51204L149.094 5.20139L149.565 4.90491L150.036 4.62442L150.508 4.36167L150.979 4.11826L151.45 3.89571L151.921 3.69537L152.392 3.5185L152.863 3.36617L153.335 3.23932L153.806 3.13875L154.277 3.06506L154.748 3.01872L155.219 3L155.69 3.00903L156.162 3.04575L156.633 3.10992L157.104 3.20117L157.575 3.31892L158.046 3.46245L158.518 3.63087L158.989 3.82314L159.46 4.03808L159.931 4.27437L160.402 4.53054L160.873 4.80503L161.345 5.09612L161.816 5.40204L162.287 5.72089L162.758 6.05072L163.229 6.38947L163.7 6.73508L164.172 7.0854L164.643 7.43827L165.114 7.79153L165.585 8.14299L166.056 8.49048L166.528 8.83187L166.999 9.16505L167.47 9.48796L167.941 9.79861L168.412 10.0951L168.883 10.3756L169.355 10.6383L169.826 10.8817L170.297 11.1043L170.768 11.3046L171.239 11.4815L171.711 11.6338L172.182 11.7607L172.653 11.8613L173.124 11.9349L173.595 11.9813L174.066 12L174.538 11.991L175.009 11.9543L175.48 11.8901L175.951 11.7988L176.422 11.6811L176.893 11.5376L177.365 11.3691L177.836 11.1769L178.307 10.9619L178.778 10.7256L179.249 10.4695L179.721 10.195L180.192 9.90388L180.663 9.59796L181.134 9.27911L181.605 8.94928L182.076 8.61053L182.548 8.26492L183.019 7.9146L183.49 7.56173L183.961 7.20847L184.432 6.85702L184.904 6.50952L185.375 6.16813L185.846 5.83495L186.317 5.51204L186.788 5.20139L187.259 4.90491L187.731 4.62442L188.202 4.36167L188.673 4.11826L189.144 3.89571L189.615 3.69537L190.086 3.5185L190.558 3.36617L191.029 3.23932L191.5 3.13875" stroke="#80ADE4" stroke-width="6" stroke-miterlimit="10" stroke-linecap="round" stroke-linejoin="round"/>
</svg>
