<svg width="25" height="36" viewBox="0 0 25 36" fill="none" xmlns="http://www.w3.org/2000/svg">
<path d="M10.928 0.671997C14.608 0.671997 17.536 1.424 19.712 2.928C21.888 4.4 22.976 6.608 22.976 9.552C22.976 11.728 22.432 13.552 21.344 15.024C20.288 16.464 18.832 17.552 16.976 18.288C15.152 18.992 13.056 19.344 10.688 19.344L9.584 15.6C12.496 15.6 15.072 16 17.312 16.8C19.584 17.6 21.376 18.752 22.688 20.256C24 21.728 24.656 23.504 24.656 25.584C24.656 27.504 24.304 29.136 23.6 30.48C22.928 31.792 22 32.864 20.816 33.696C19.664 34.496 18.352 35.088 16.88 35.472C15.408 35.824 13.888 36 12.32 36H0.56V0.671997H10.928ZM11.744 15.12C13.12 15.12 14.128 14.704 14.768 13.872C15.44 13.04 15.776 12.096 15.776 11.04C15.776 9.824 15.36 8.912 14.528 8.304C13.728 7.696 12.64 7.392 11.264 7.392H7.52V15.12H11.744ZM11.984 29.52C13.52 29.52 14.816 29.216 15.872 28.608C16.928 27.968 17.456 26.96 17.456 25.584C17.456 24.56 17.168 23.792 16.592 23.28C16.016 22.736 15.264 22.368 14.336 22.176C13.44 21.952 12.496 21.84 11.504 21.84H7.52V29.52H11.984Z" fill="black"/>
</svg>
