<svg width="273" height="12" viewBox="0 0 273 12" fill="none" xmlns="http://www.w3.org/2000/svg">
<path d="M3 8.75327L3.66917 8.90779L4.33835 8.99072L5.00752 9L5.67669 8.93542L6.34586 8.79855L7.01504 8.59278L7.68421 8.32316L8.35338 7.99634L9.02256 7.62036L9.69173 7.20448L10.3609 6.75895L11.0301 6.29472L11.6992 5.82324L12.3684 5.35612L13.0376 4.90484L13.7068 4.48054L14.3759 4.09365L15.0451 3.75369L15.7143 3.46905L16.3835 3.24673L17.0526 3.09221L17.7218 3.00928L18.391 3L19.0602 3.06458L19.7293 3.20145L20.3985 3.40722L21.0677 3.67684L21.7368 4.00366L22.406 4.37964L23.0752 4.79552L23.7444 5.24105L24.4135 5.70528L25.0827 6.17676L25.7519 6.64388L26.4211 7.09516L27.0902 7.51946L27.7594 7.90635L28.4286 8.2463L29.0977 8.53095L29.7669 8.75327L30.4361 8.90779L31.1053 8.99072L31.7744 9L32.4436 8.93542L33.1128 8.79855L33.782 8.59278L34.4511 8.32316L35.1203 7.99634L35.7895 7.62036L36.4586 7.20448L37.1278 6.75895L37.797 6.29472L38.4662 5.82324L39.1353 5.35612L39.8045 4.90484L40.4737 4.48054L41.1429 4.09365L41.812 3.75369L42.4812 3.46905L43.1504 3.24673L43.8195 3.09221L44.4887 3.00928L45.1579 3L45.8271 3.06458L46.4962 3.20145L47.1654 3.40722L47.8346 3.67684L48.5038 4.00366L49.1729 4.37964L49.8421 4.79552L50.5113 5.24105L51.1805 5.70528L51.8496 6.17676L52.5188 6.64388L53.188 7.09516L53.8571 7.51946L54.5263 7.90635L55.1955 8.2463L55.8647 8.53095L56.5338 8.75327L57.203 8.90779L57.8722 8.99072L58.5414 9L59.2105 8.93542L59.8797 8.79855L60.5489 8.59278L61.218 8.32316L61.8872 7.99634L62.5564 7.62036L63.2256 7.20448L63.8947 6.75895L64.5639 6.29472L65.2331 5.82324L65.9023 5.35612L66.5714 4.90484L67.2406 4.48054L67.9098 4.09365L68.5789 3.75369L69.2481 3.46905L69.9173 3.24673L70.5865 3.09221L71.2556 3.00928L71.9248 3L72.594 3.06458L73.2632 3.20145L73.9323 3.40722L74.6015 3.67684L75.2707 4.00366L75.9399 4.37964L76.609 4.79552L77.2782 5.24105L77.9474 5.70528L78.6165 6.17676L79.2857 6.64388L79.9549 7.09516L80.6241 7.51946L81.2932 7.90635L81.9624 8.2463L82.6316 8.53095L83.3008 8.75327L83.9699 8.90779L84.6391 8.99072L85.3083 9L85.9774 8.93542L86.6466 8.79855L87.3158 8.59278L87.985 8.32316L88.6541 7.99634L89.3233 7.62036L89.9925 7.20448L90.6617 6.75895L91.3308 6.29472L92 5.82324L92.6692 5.35612L93.3383 4.90484L94.0075 4.48054L94.6767 4.09365L95.3459 3.75369L96.015 3.46905L96.6842 3.24673L97.3534 3.09221L98.0226 3.00928L98.6917 3L99.3609 3.06458L100.03 3.20145L100.699 3.40722L101.368 3.67684L102.038 4.00366L102.707 4.37964L103.376 4.79552L104.045 5.24105L104.714 5.70528L105.383 6.17676L106.053 6.64388L106.722 7.09516L107.391 7.51946L108.06 7.90635L108.729 8.2463L109.398 8.53095L110.068 8.75327L110.737 8.90779L111.406 8.99072L112.075 9L112.744 8.93542L113.414 8.79855L114.083 8.59278L114.752 8.32316L115.421 7.99634L116.09 7.62036L116.759 7.20448L117.429 6.75895L118.098 6.29472L118.767 5.82324L119.436 5.35612L120.105 4.90484L120.774 4.48054L121.444 4.09365L122.113 3.75369L122.782 3.46905L123.451 3.24673L124.12 3.09221L124.789 3.00928L125.459 3L126.128 3.06458L126.797 3.20145L127.466 3.40722L128.135 3.67684L128.805 4.00366L129.474 4.37964L130.143 4.79552L130.812 5.24105L131.481 5.70528L132.15 6.17676L132.82 6.64388L133.489 7.09516L134.158 7.51946L134.827 7.90635L135.496 8.2463L136.165 8.53095L136.835 8.75327L137.504 8.90779L138.173 8.99072L138.842 9L139.511 8.93542L140.18 8.79855L140.85 8.59278L141.519 8.32316L142.188 7.99634L142.857 7.62036L143.526 7.20448L144.195 6.75895L144.865 6.29472L145.534 5.82324L146.203 5.35612L146.872 4.90484L147.541 4.48054L148.211 4.09365L148.88 3.75369L149.549 3.46905L150.218 3.24673L150.887 3.09221L151.556 3.00928L152.226 3L152.895 3.06458L153.564 3.20145L154.233 3.40722L154.902 3.67684L155.571 4.00366L156.241 4.37964L156.91 4.79552L157.579 5.24105L158.248 5.70528L158.917 6.17676L159.586 6.64388L160.256 7.09516L160.925 7.51946L161.594 7.90635L162.263 8.2463L162.932 8.53095L163.602 8.75327L164.271 8.90779L164.94 8.99072L165.609 9L166.278 8.93542L166.947 8.79855L167.617 8.59278L168.286 8.32316L168.955 7.99634L169.624 7.62036L170.293 7.20448L170.962 6.75895L171.632 6.29472L172.301 5.82324L172.97 5.35612L173.639 4.90484L174.308 4.48054L174.977 4.09365L175.647 3.75369L176.316 3.46905L176.985 3.24673L177.654 3.09221L178.323 3.00928L178.992 3L179.662 3.06458L180.331 3.20145L181 3.40722L181.669 3.67684L182.338 4.00366L183.008 4.37964L183.677 4.79552L184.346 5.24105L185.015 5.70528L185.684 6.17676L186.353 6.64388L187.023 7.09516L187.692 7.51946L188.361 7.90635L189.03 8.2463L189.699 8.53095L190.368 8.75327L191.038 8.90779L191.707 8.99072L192.376 9L193.045 8.93542L193.714 8.79855L194.383 8.59278L195.053 8.32316L195.722 7.99634L196.391 7.62036L197.06 7.20448L197.729 6.75895L198.398 6.29472L199.068 5.82324L199.737 5.35612L200.406 4.90484L201.075 4.48054L201.744 4.09365L202.414 3.75369L203.083 3.46905L203.752 3.24673L204.421 3.09221L205.09 3.00928L205.759 3L206.429 3.06458L207.098 3.20145L207.767 3.40722L208.436 3.67684L209.105 4.00366L209.774 4.37964L210.444 4.79552L211.113 5.24105L211.782 5.70528L212.451 6.17676L213.12 6.64388L213.789 7.09516L214.459 7.51946L215.128 7.90635L215.797 8.2463L216.466 8.53095L217.135 8.75327L217.805 8.90779L218.474 8.99072L219.143 9L219.812 8.93542L220.481 8.79855L221.15 8.59278L221.82 8.32316L222.489 7.99634L223.158 7.62036L223.827 7.20448L224.496 6.75895L225.165 6.29472L225.835 5.82324L226.504 5.35612L227.173 4.90484L227.842 4.48054L228.511 4.09365L229.18 3.75369L229.85 3.46905L230.519 3.24673L231.188 3.09221L231.857 3.00928L232.526 3L233.195 3.06458L233.865 3.20145L234.534 3.40722L235.203 3.67684L235.872 4.00366L236.541 4.37964L237.211 4.79552L237.88 5.24105L238.549 5.70528L239.218 6.17676L239.887 6.64388L240.556 7.09516L241.226 7.51946L241.895 7.90635L242.564 8.2463L243.233 8.53095L243.902 8.75327L244.571 8.90779L245.241 8.99072L245.91 9L246.579 8.93542L247.248 8.79855L247.917 8.59278L248.586 8.32316L249.256 7.99634L249.925 7.62036L250.594 7.20448L251.263 6.75895L251.932 6.29472L252.602 5.82324L253.271 5.35612L253.94 4.90484L254.609 4.48054L255.278 4.09365L255.947 3.75369L256.617 3.46905L257.286 3.24673L257.955 3.09221L258.624 3.00928L259.293 3L259.962 3.06458L260.632 3.20145L261.301 3.40722L261.97 3.67684L262.639 4.00366L263.308 4.37964L263.977 4.79552L264.647 5.24105L265.316 5.70528L265.985 6.17676L266.654 6.64388L267.323 7.09516L267.992 7.51946L268.662 7.90635L269.331 8.2463L270 8.53095" stroke="#FED74A" stroke-width="5" stroke-miterlimit="10" stroke-linecap="round" stroke-linejoin="round"/>
</svg>
