<svg width="403" height="136" viewBox="0 0 403 136" fill="none" xmlns="http://www.w3.org/2000/svg">
<g clip-path="url(#clip0_47_1428)">
<path d="M211.877 120.364C209.07 120.696 206.224 120.418 203.537 119.549C200.849 118.68 198.385 117.241 196.315 115.332C192.022 111.413 189.892 106.078 190.651 101.057L198.217 88.5C197.92 91.1551 198.28 93.842 199.267 96.3277C200.254 98.8134 201.838 101.023 203.881 102.764C205.957 104.679 208.432 106.119 211.131 106.983C213.829 107.846 216.686 108.112 219.5 107.762L211.923 120.364" fill="black"/>
<path d="M224.491 100.36C221.604 100.701 218.675 100.419 215.911 99.5325C213.146 98.6466 210.612 97.1783 208.485 95.2302C204.055 91.2344 201.875 85.796 202.656 80.6782L210.665 67.5C209.896 72.6178 212.076 78.0563 216.494 82.0521C218.622 83.9975 221.157 85.4641 223.921 86.3499C226.685 87.2357 229.613 87.5195 232.5 87.1814L224.491 100.36Z" fill="black"/>
<path d="M197.894 88.67L204.5 42.5L197.095 55.3414L190.5 101.5L197.894 88.67Z" fill="black"/>
<path d="M210.532 67.3939L217.5 21.5L209.479 34.6061L202.5 80.5L210.532 67.3939Z" fill="black"/>
<path d="M83.4771 15.5L30.5839 22.837C25.6043 31.6549 20.7813 39.9076 16.1148 47.595C11.4483 55.2824 6.24336 63.5841 0.5 72.5L16.5386 70.239L26.8492 53.2475C28.8311 52.931 31.7066 52.5127 35.5101 51.9927C44.675 50.7265 53.2557 49.6827 61.2521 48.8612L69.3631 35.4534C60.9619 36.8703 52.7898 38.1289 44.8469 39.2293C40.2644 39.8624 36.8275 40.3598 34.5363 40.5972L38.8782 33.4072L75.7556 28.2973L83.5 15.5" fill="black"/>
<path d="M89.1563 41.0034C97.3047 32.3052 103.414 25.8 107.485 21.488L106.419 25.6588C105.335 30.1194 104.189 34.6024 102.983 39.1077L89.1563 41.0034ZM126.5 9.5L101.551 12.9124L52.5 64.5L69.5223 62.1693L78.8468 52.0659L100.474 49.0996C99.5461 52.7685 98.7328 55.7906 98.0226 58.2774L115.572 55.8798L126.5 9.5Z" fill="black"/>
<path d="M165.431 4.61466L149.443 6.87545C144.479 15.6775 139.672 23.9294 135.02 31.6312C130.368 39.333 125.195 47.6226 119.5 56.5L135.488 54.2392L145.058 38.4136L175.161 34.1859L182.881 21.3898L152.766 25.6175L157.471 17.8177L187.586 13.6239L195.5 0.5L165.386 4.68248V4.61466" fill="black"/>
<path d="M197.656 55.5C198.469 50.0181 196.155 44.195 191.472 39.93C189.217 37.841 186.53 36.2662 183.598 35.3154C180.667 34.3647 177.562 34.0609 174.5 34.4253L182.173 21.6531C185.236 21.2839 188.343 21.5843 191.276 22.5332C194.21 23.4821 196.899 25.0566 199.156 27.1464C203.84 31.4114 206.153 37.2459 205.34 42.7278L197.667 55.5" fill="black"/>
<path d="M210.212 34.5C211.045 29.0749 208.688 23.3121 203.88 19.0913C201.572 17.0208 198.821 15.4593 195.819 14.5164C192.817 13.5734 189.636 13.2717 186.5 13.6325L194.58 0.654986C197.723 0.284455 200.913 0.580246 203.924 1.5215C206.935 2.46275 209.694 4.02655 212.007 6.1026C216.803 10.3234 219.16 16.0862 218.339 21.5225L210.259 34.5" fill="black"/>
<path d="M265.91 82.8722L231.792 87.1288L223.868 100.16L253.921 96.4139C256.391 96.0635 258.88 95.8588 261.374 95.801C262.959 95.801 263.912 96.0507 264.211 96.5161C264.509 96.9815 264.36 97.6512 263.763 98.7069C263.161 99.7168 262.327 100.572 261.328 101.204C259.998 101.96 258.557 102.508 257.056 102.827C254.486 103.418 251.882 103.857 249.259 104.144L219.16 107.89L211.5 120.58L242.254 116.744C241.886 123.062 241.446 127.981 240.933 131.5L257.01 129.502L256.677 115.427C256.726 114.906 256.726 114.382 256.677 113.86C261.136 112.323 265.256 109.958 268.816 106.891C272.17 103.909 275.046 100.441 277.348 96.6069C280.411 91.5822 281.241 87.7985 279.84 85.2559C278.439 82.7133 273.788 81.93 265.887 82.9062" fill="black"/>
<path d="M317.356 74.7748C310.389 75.6361 303.662 77.8455 297.556 81.2774C291.441 84.6941 286.348 89.6524 282.793 95.649C280.194 99.9537 280.122 102.846 282.574 104.327C285.027 105.807 290.27 106.046 298.304 105.044C305.616 104.118 308.441 105.044 306.778 107.823C305.915 108.9 304.775 109.726 303.478 110.214C301.091 111.213 298.562 111.836 295.981 112.059C292.859 112.46 289.692 112.367 286.599 111.786C283.979 111.408 281.516 110.321 279.481 108.643C277.082 111.383 274.832 113.805 272.732 115.908C270.632 118.011 268.221 120.289 265.5 122.741C268.275 124.589 271.465 125.739 274.79 126.089C278.88 126.637 283.026 126.637 287.116 126.089C294.403 125.347 301.463 123.15 307.87 119.632C313.799 116.099 318.716 111.12 322.15 105.169C324.887 100.614 325.029 97.4787 322.576 95.7629C320.123 94.0471 314.73 93.7017 306.398 94.7266C302.949 95.1593 300.649 95.148 299.235 94.7266C297.821 94.3052 297.464 93.5878 298.085 92.449C298.929 91.2158 300.132 90.2664 301.534 89.7273C304.124 88.7727 306.831 88.1675 309.583 87.928C312.794 87.5471 316.048 87.7283 319.195 88.4632C322.499 89.2224 324.592 90.3992 325.473 91.9935C325.91 91.5152 326.508 90.8547 327.29 89.8753C331.122 85.4112 334.526 81.6152 337.5 78.4873C334.911 76.7006 331.94 75.5313 328.819 75.0709C325.022 74.4007 321.143 74.32 317.321 74.8317" fill="black"/>
<path d="M395.5 66.5L381.672 68.2439L370.55 86.8991L348.891 89.6297L360.025 70.9745L346.197 72.7184C341.22 81.5756 336.428 89.8515 331.818 97.5461C327.209 105.241 322.103 113.559 316.5 122.5L330.328 120.756L341.45 102.066L363.109 99.3359L351.975 117.991L365.803 116.247C370.137 108.553 374.949 100.273 380.239 91.408C385.528 82.5432 390.616 74.2405 395.5 66.5Z" fill="black"/>
<path d="M46.5 120.5V91.8479H48.775V93.6358C49.1877 93.0897 49.6695 92.6004 50.2082 92.1803C50.8086 91.7204 51.5473 91.4818 52.3012 91.5041C53.0809 91.4636 53.8463 91.7262 54.4396 92.2376C55.0258 92.7499 55.4722 93.4049 55.7364 94.1401C56.045 95.0374 56.2474 95.9684 56.3392 96.9136C56.4454 97.9684 56.4985 99.028 56.4985 100.088V104.673C56.5159 106.29 56.3826 107.905 56.1004 109.498C55.9286 110.656 55.4623 111.749 54.7468 112.672C54.4172 113.053 54.0067 113.353 53.5458 113.552C53.085 113.75 52.5857 113.841 52.085 113.818C51.3847 113.831 50.7029 113.591 50.1627 113.142C49.6582 112.736 49.2038 112.27 48.8091 111.755V120.5H46.5ZM51.6983 111.606C52.01 111.624 52.3208 111.559 52.6001 111.418C52.8793 111.277 53.1174 111.066 53.2908 110.804C53.7016 110.081 53.9464 109.274 54.0074 108.443C54.1316 107.194 54.1886 105.939 54.178 104.684V100.1C54.1895 98.9055 54.1325 97.7115 54.0074 96.5239C53.9272 95.7566 53.6701 95.0187 53.2567 94.3693C53.0676 94.1195 52.8202 93.9207 52.5363 93.7907C52.2525 93.6607 51.9411 93.6035 51.6301 93.6243C51.0414 93.6268 50.4699 93.8241 50.0035 94.1859C49.5528 94.5205 49.1407 94.9049 48.775 95.332V110.048C49.1291 110.494 49.5514 110.881 50.0262 111.194C50.5245 111.514 51.1077 111.674 51.6983 111.652V111.606Z" fill="black"/>
<path d="M60.5 113.465V91.7307H62.8599V94.6956C63.3132 93.7081 64.0174 92.8601 64.9006 92.2383C65.5446 91.7837 66.3048 91.5273 67.0896 91.5H67.2834H67.5V94.4418C67.3326 94.3533 67.1513 94.2948 66.9642 94.2687C66.7631 94.2527 66.561 94.2527 66.3599 94.2687C65.6617 94.2656 64.9786 94.4746 64.399 94.8686C63.737 95.3727 63.2083 96.0345 62.8599 96.7952V113.5L60.5 113.465Z" fill="black"/>
<path d="M73.4818 113.493C72.3974 113.552 71.329 113.217 70.4818 112.554C69.6968 111.82 69.1698 110.862 68.976 109.818C68.6443 108.374 68.4849 106.898 68.5011 105.419V99.5503C68.4873 98.0787 68.6467 96.6104 68.976 95.1743C69.1793 94.1257 69.7188 93.1674 70.5166 92.4378C71.3964 91.8278 72.4489 91.5 73.5281 91.5C74.6074 91.5 75.6598 91.8278 76.5397 92.4378C77.3221 93.1757 77.852 94.1313 78.0571 95.1743C78.3748 96.6117 78.5225 98.08 78.4972 99.5503V105.419C78.5222 106.885 78.3745 108.35 78.0571 109.784C77.852 110.827 77.3221 111.782 76.5397 112.52C75.6826 113.209 74.5903 113.556 73.4818 113.493ZM73.4818 111.457C73.8197 111.486 74.1599 111.435 74.4728 111.307C74.7856 111.179 75.0618 110.978 75.2772 110.722C75.7042 110.11 75.9451 109.393 75.9721 108.653C76.0532 107.771 76.0996 106.753 76.0996 105.6V99.392C76.0996 98.2612 76.0996 97.2322 75.9721 96.3503C75.9393 95.6148 75.6988 94.9026 75.2772 94.2923C75.0656 94.0308 74.7907 93.8246 74.4774 93.6924C74.164 93.5602 73.8219 93.506 73.4818 93.5347C73.1448 93.5036 72.8053 93.5568 72.4952 93.6894C72.1851 93.8219 71.9148 94.0294 71.7096 94.2923C71.2983 94.9075 71.0587 95.6169 71.0146 96.3503C70.9055 97.3606 70.8552 98.3761 70.8641 99.392V105.6C70.8553 106.619 70.9056 107.639 71.0146 108.653C71.0529 109.391 71.2929 110.105 71.7096 110.722C71.918 110.98 72.1896 111.183 72.4994 111.311C72.8091 111.44 73.147 111.49 73.4818 111.457Z" fill="black"/>
<path d="M86.0491 113.493C85.3248 113.537 84.6041 113.363 83.9846 112.996C83.365 112.628 82.8764 112.085 82.5846 111.439C81.7409 109.266 81.3826 106.944 81.5337 104.626V100.708C81.5083 99.1037 81.6242 97.5001 81.8801 95.915C82.0229 94.7773 82.4732 93.6967 83.1851 92.7832C83.5188 92.4036 83.9388 92.1046 84.4118 91.9097C84.8847 91.7149 85.3978 91.6297 85.9105 91.6607C86.5959 91.6484 87.2675 91.8489 87.8276 92.2331C88.3433 92.5843 88.8026 93.008 89.1903 93.4903V83.5H91.5V113.157H89.1903V111.664C88.8112 112.146 88.3596 112.57 87.8507 112.921C87.3299 113.297 86.6976 113.498 86.0491 113.493ZM86.4995 111.406C87.0123 111.398 87.5125 111.25 87.9431 110.979C88.422 110.705 88.8576 110.364 89.2365 109.969V95.2527C88.8844 94.882 88.4978 94.5439 88.0817 94.2424C87.6211 93.9197 87.0673 93.7468 86.4995 93.7485C86.0239 93.7312 85.5574 93.8785 85.183 94.1642C84.8087 94.4499 84.5509 94.8556 84.4554 95.3088C84.0564 96.7957 83.8775 98.3302 83.9242 99.8662V104.85C83.9111 106.051 83.9805 107.251 84.1321 108.442C84.1952 109.241 84.461 110.012 84.9058 110.687C85.0907 110.925 85.3327 111.114 85.6105 111.24C85.8884 111.365 86.1937 111.422 86.4995 111.406Z" fill="black"/>
<path d="M98.4979 113.499C97.9027 113.518 97.3215 113.322 96.8692 112.947C96.3842 112.526 96.0336 111.98 95.8587 111.372C95.6029 110.569 95.4824 109.73 95.5021 108.89V91.5H97.8797V108.281C97.8141 109.103 97.974 109.928 98.3433 110.671C98.4927 110.896 98.7015 111.079 98.948 111.2C99.1945 111.321 99.47 111.377 99.7461 111.361C100.379 111.34 100.988 111.123 101.482 110.74C102.097 110.295 102.649 109.774 103.122 109.189V91.5H105.5V113.165H103.122V110.763C102.536 111.529 101.821 112.193 101.006 112.729C100.266 113.216 99.3937 113.484 98.4979 113.499Z" fill="black"/>
<path d="M113.567 113.478C112.966 113.518 112.363 113.439 111.796 113.245C111.23 113.05 110.711 112.745 110.274 112.349C109.496 111.506 108.999 110.46 108.847 109.344C108.602 107.926 108.488 106.49 108.504 105.053V100.095C108.473 98.4701 108.615 96.8466 108.929 95.2497C109.103 94.1763 109.642 93.1878 110.463 92.4375C111.345 91.7768 112.449 91.4475 113.567 91.5114C114.673 91.436 115.772 91.7359 116.67 92.3585C117.404 92.9862 117.902 93.8276 118.086 94.7528C118.342 95.9415 118.465 97.1531 118.452 98.3668V99.3607H116.21V98.3329C116.236 97.356 116.153 96.3792 115.962 95.4191C115.873 94.8561 115.581 94.3407 115.136 93.9622C114.687 93.6641 114.148 93.5171 113.602 93.5443C113.29 93.5238 112.977 93.5654 112.682 93.6665C112.388 93.7676 112.118 93.926 111.891 94.1316C111.446 94.6892 111.187 95.3622 111.148 96.0629C110.999 97.2545 110.932 98.4542 110.947 99.6543V105.629C110.86 107.155 111.052 108.683 111.513 110.146C111.678 110.559 111.98 110.91 112.372 111.144C112.763 111.378 113.224 111.484 113.685 111.445C113.99 111.469 114.297 111.432 114.586 111.334C114.874 111.237 115.138 111.082 115.36 110.88C115.782 110.393 116.037 109.794 116.092 109.164C116.211 108.223 116.267 107.276 116.257 106.329V105.2H118.499V106.239C118.511 107.505 118.388 108.768 118.133 110.011C117.952 110.99 117.462 111.893 116.729 112.597C115.835 113.274 114.7 113.59 113.567 113.478Z" fill="black"/>
<path d="M125.38 113.485C124.6 113.531 123.828 113.316 123.201 112.879C122.672 112.455 122.309 111.878 122.171 111.239C121.979 110.451 121.886 109.644 121.895 108.836V93.8102H119.5V92.0695H121.895V85.5H124.29V92.0695H127.5V93.8214H124.29V108.578C124.244 109.317 124.354 110.057 124.614 110.756C124.748 110.983 124.953 111.166 125.201 111.281C125.45 111.395 125.729 111.436 126.003 111.396C126.222 111.417 126.443 111.417 126.662 111.396L127.368 111.306V113.328C127.032 113.397 126.692 113.45 126.35 113.485C126.027 113.505 125.703 113.505 125.38 113.485Z" fill="black"/>
<path d="M130.5 89.1615V85.5H132.5V89.1615H130.5ZM130.5 113.489V92.1316H132.5V113.5L130.5 113.489Z" fill="black"/>
<path d="M141.499 113.493C140.412 113.552 139.34 113.218 138.49 112.555C137.689 111.825 137.148 110.867 136.944 109.818C136.626 108.384 136.478 106.92 136.503 105.453V99.5506C136.477 98.0802 136.626 96.6119 136.944 95.1744C137.148 94.1258 137.689 93.1675 138.49 92.4379C139.372 91.8278 140.428 91.5 141.511 91.5C142.594 91.5 143.649 91.8278 144.532 92.4379C145.321 93.173 145.853 94.1299 146.054 95.1744C146.379 96.611 146.527 98.08 146.496 99.5506V105.419C146.527 106.886 146.379 108.351 146.054 109.784C145.853 110.829 145.321 111.786 144.532 112.521C143.681 113.202 142.6 113.549 141.499 113.493ZM141.499 111.458C141.838 111.488 142.18 111.437 142.494 111.309C142.808 111.181 143.085 110.979 143.3 110.723C143.729 110.111 143.97 109.393 143.998 108.653C144.091 107.771 144.125 106.754 144.125 105.6V99.3923C144.135 98.3769 144.093 97.3617 143.998 96.3504C143.965 95.615 143.723 94.9027 143.3 94.2924C143.089 94.0301 142.813 93.8234 142.499 93.6911C142.184 93.5588 141.841 93.505 141.499 93.5347C141.161 93.5047 140.821 93.5584 140.51 93.6909C140.199 93.8234 139.928 94.0303 139.721 94.2924C139.309 94.9076 139.069 95.617 139.024 96.3504C138.915 97.3608 138.864 98.3764 138.873 99.3923V105.6C138.864 106.62 138.915 107.639 139.024 108.653C139.063 109.391 139.303 110.106 139.721 110.723C139.932 110.979 140.205 111.181 140.515 111.309C140.825 111.437 141.164 111.488 141.499 111.458Z" fill="black"/>
<path d="M149.5 113.431V91.7879H151.892V94.0855C152.481 93.3642 153.188 92.7396 153.985 92.2359C154.739 91.7523 155.626 91.4963 156.532 91.5007C157.123 91.4867 157.698 91.6831 158.147 92.0521C158.624 92.4792 158.972 93.0234 159.151 93.626C159.399 94.435 159.516 95.2757 159.498 96.1188V113.5H157.106V96.6473C157.175 95.8288 157.014 95.0077 156.64 94.2693C156.494 94.0423 156.287 93.8574 156.041 93.7341C155.794 93.6107 155.518 93.5535 155.241 93.5685C154.637 93.5947 154.055 93.7904 153.566 94.1314C152.953 94.5396 152.406 95.031 151.94 95.5904V113.431H149.5Z" fill="black"/>
</g>
<defs>
<clipPath id="clip0_47_1428">
<rect width="402" height="135" fill="white" transform="translate(0.5 0.5)"/>
</clipPath>
</defs>
</svg>
